<?xml version="1.0" encoding="utf-8"?>
<!-- Generator: Adobe Illustrator 24.3.0, SVG Export Plug-In . SVG Version: 6.00 Build 0)  -->
<svg version="1.1" id="Layer_1" xmlns="http://www.w3.org/2000/svg" xmlns:xlink="http://www.w3.org/1999/xlink" x="0px" y="0px"
	 viewBox="0 0 960.23 960.23" style="enable-background:new 0 0 960.23 960.23;" xml:space="preserve">
<style type="text/css">
	.st0{fill:#1B1C1E;}
	.st1{fill:#FFFFFF;}
	.st2{fill:none;stroke:#1B1C1E;stroke-width:30;stroke-miterlimit:10;}
	.st3{fill:#EF001E;}
</style>
<path class="st0" d="M737.21,960.23h-514.2C99.85,960.23,0,860.38,0,737.21v-514.2C0,99.85,99.85,0,223.01,0h514.2
	c123.17,0,223.01,99.85,223.01,223.01v514.2C960.23,860.38,860.38,960.23,737.21,960.23z"/>
<path class="st1" d="M737.21,960.23h-514.2C99.85,960.23,0,860.38,0,737.21v-514.2C0,99.85,99.85,0,223.01,0h514.2
	c123.17,0,223.01,99.85,223.01,223.01v514.2C960.23,860.38,860.38,960.23,737.21,960.23z"/>
<rect x="118.25" y="118.25" class="st2" width="723.72" height="723.72"/>
<rect x="327.42" y="32.7" class="st1" width="305.39" height="877.01"/>
<rect x="327.42" y="32.7" transform="matrix(-1.836970e-16 1 -1 -1.836970e-16 951.3217 -8.9072)" class="st1" width="305.39" height="877.01"/>
<g>
	<path class="st3" d="M725.58,385.51c-52.47,30.11-103.3,59.28-154.12,88.44c-1.18-1.02-2.37-2.04-3.55-3.06
		c26.57-42.56,53.14-85.12,79.62-127.53c-53.27-47.82-156.44-35.17-212.9,25.41c-62,66.53-58.98,169.06,5.77,233.33
		c56.74,56.31,170.03,77.6,254.17-16.82c12.08,12.52,3.95,21.49-5.02,30.3c-40.76,40.07-91.05,60.93-146.67,68.7
		c-73.06,10.2-143.71,2.43-208.67-35.66c-133.74-78.41-132.47-257,2.26-333.71c114.02-64.92,279.9-46.99,363.16,39.5
		C708.5,363.64,716.1,374.08,725.58,385.51z"/>
</g>
</svg>
