<?xml version="1.0" encoding="utf-8"?>
<!-- Generator: Adobe Illustrator 24.3.0, SVG Export Plug-In . SVG Version: 6.00 Build 0)  -->
<svg version="1.1" id="Layer_1" xmlns="http://www.w3.org/2000/svg" xmlns:xlink="http://www.w3.org/1999/xlink" x="0px" y="0px"
	 viewBox="0 0 193.31 133.46" style="enable-background:new 0 0 193.31 133.46;" xml:space="preserve">
<style type="text/css">
	.st0{fill:#FFFFFF;}
</style>
<g>
	<path class="st0" d="M118.69,121.11l-26.24-10.59c-4.79-1.88-6.37-6.3-8.33-10.29c-4.63-9.41-6.29-19.34-4.29-29.77
		c1.33-6.93,4.41-13.04,8.6-18.65c0.88-1.18,1.76-2.35,3.11-4.14c-2.6,0.9-3.37,2.63-4.51,4c-11.06,13.19-12.98,27.97-7.81,44.04
		c1.15,3.58,2.63,7.02,4.34,10.34c1.05,2.06,0.7,3.05-1.41,3.86c-6.77,2.62-13.48,5.38-20.24,8.01c-1.67,0.65-3.21,1.1-3.25-1.89
		c-0.17-13.21-0.51-26.41-0.88-39.62c-0.09-3.34,0.8-5.71,3.86-7.67c5.84-3.73,6.33-13.08,1.35-18.99
		c-0.43-0.51-0.91-0.99-1.62-1.41c2.3,3.78,3.45,7.78,2.96,12.2c-0.36,3.2-1.72,5.67-4.67,6.96c-3.42,1.5-4.55,4.07-4.42,7.63
		c0.55,15.13,1.04,30.27,1.48,45.41c0.22,7.47-3.18,11.01-10.76,11.16c-6.4,0.13-12.4-1.84-18.02-4.59
		c-7.71-3.78-15.12-8.14-22.35-12.82c-3.89-2.52-5.49-6-5.51-10.24C-0.03,84.48-0.01,64.89,0.05,45.3c0.01-3.92,2.61-6.15,6-7.45
		c5.73-2.19,11.75-3.47,17.47-5.75c2.24-0.89,3.87-1.77,3.6-4.5c-0.19-1.95,0.74-1.89,2.29-1.36c6.61,2.25,13.21,1.55,19.76-0.41
		c0.96-0.29,1.92-0.69,2.76-1.24c2.27-1.47,2.18-3.06-0.2-4.23c-0.7-0.35-1.47-0.59-2.24-0.79c-3.91-1.01-4.44-2.08-2.53-5.63
		c1.19-2.22,2.73-4.25,5.15-5.2c6.28-2.48,12.29-5.75,18.9-7.3c8.77-2.05,17.66-1.78,26.42,0.03c10.01,2.07,19.86,4.78,29.12,9.24
		c2.35,1.13,4.68,2.35,6.87,3.75c2.68,1.71,2.58,3.92-0.19,5.53c-1.46,0.85-3.06,1.45-4.6,2.16c-1.96,0.9-2.34,2.18-0.65,3.63
		c3.44,2.96,6.24,6.13,6.35,11.09c0.04,1.99,2.36,1.84,3.76,2.21c3.88,1.03,7.83,1.82,11.94,3.18c0,0-21.59-0.73-35.23,24.46
		C96.65,100.24,118.69,121.11,118.69,121.11z M46.67,47.84c-1.86,0.15-4.83-0.37-7.67,0.87c-2.11,0.92-2.46,1.91-0.94,3.81
		c3.41,4.27,13.25,7.92,18.47,6.42c1.99-0.57,4.17-1.37,4.35-4.13c0.18-2.74-1.04-4.32-3.5-5.54
		C54.24,47.72,51.02,47.72,46.67,47.84z M115.94,21.15c5.15,0,9.37-0.03,13.51-0.9c1.81-0.38,3.76-1.28,3.78-3.32
		c0.02-2.3-2.36-2.23-3.89-2.35c-4.88-0.38-9.78-0.43-14.66,0.06c-2.71,0.27-5.42,0.68-7.99,1.7c-1.22,0.48-2.37,1.18-2.28,2.63
		c0.09,1.54,1.54,1.36,2.61,1.61C110.27,21.35,113.58,21.09,115.94,21.15z"/>
	<path class="st0" d="M124.26,105.32c8.59,16.09,28.51,12.81,36.39-1.1c11.6-15.9,10.27-45.89-12.55-50.3
		c7.31-5.8,21.49-4.29,28.2,2.87c16.67,18.44,10.82,49.05-7.43,64.32C151.71,136.64,126.99,128.97,124.26,105.32z"/>
	<path class="st0" d="M131.15,127.88c-13.8-7.83-20.1-28.07-15.1-46.23c7.51-27.26,30.72-39.18,48.69-35.12
		c-20.43,1.27-34.37,11.6-42.01,30.11C115.09,95.14,117.09,112.46,131.15,127.88z"/>
	<path class="st0" d="M178.67,53.88c12.88,7.6,19.28,30.54,10.78,51.42c-8.53,20.98-27.86,30.27-41.7,27.76
		C184.55,130.36,203.85,79.34,178.67,53.88z"/>
	<path class="st0" d="M39.66,25.94c-22.61-0.81,1.62-10.91,8.44-5.21c0.57,0.48,1.42,2.19,1.1,2.86c-0.84,1.74-7.17,2.35-9.41,2.35
		C39.75,25.94,39.7,25.94,39.66,25.94z"/>
</g>
<ellipse transform="matrix(0.2694 -0.963 0.963 0.2694 21.0941 195.3394)" class="st0" cx="139.29" cy="83.77" rx="22.8" ry="13.7"/>
</svg>
