<?xml version="1.0" encoding="utf-8"?>
<!-- Generator: Adobe Illustrator 24.3.0, SVG Export Plug-In . SVG Version: 6.00 Build 0)  -->
<svg version="1.1" xmlns="http://www.w3.org/2000/svg" xmlns:xlink="http://www.w3.org/1999/xlink" x="0px" y="0px"
	 viewBox="0 0 92.96 222.97" style="enable-background:new 0 0 92.96 222.97;" xml:space="preserve">
<style type="text/css">
	.st0{fill:#FFFFFF;}
	.st1{display:none;}
	.st2{display:inline;fill:#FFFFFF;}
</style>
<g id="Right_Fill_copy">
	<g>
		<path class="st0" d="M87.31,18.9c-0.05-0.04-0.1-0.09-0.15-0.13c-2.41-1.98-5.29-3.33-8.26-4.22l-17.71-3.37
			c-5.91-1.13-11.82-2.22-17.71-3.44L25.8,4.18c-1.46-0.28-2.99-0.62-4.38-0.86c-0.7-0.09-1.38-0.04-2.1,0.1
			c-0.71,0.12-1.4,0.32-2.07,0.58c-2.69,1.02-4.92,3.18-6.05,5.82c-0.57,1.32-0.87,2.75-0.85,4.19v4.51v9.02v18.03v36.07v72.14
			v36.07l-0.02,9.02c-0.01,3-0.02,6,0.36,8.93c0.23,1.45,0.5,2.91,1.1,4.22c0.24,0.69,0.65,1.27,1.01,1.89
			c0.21,0.28,0.46,0.54,0.68,0.81c0.12,0.13,0.22,0.28,0.35,0.39l0.42,0.33c1.05,0.96,2.45,1.44,3.81,1.87
			c0.72,0.12,1.43,0.26,2.15,0.36l2.17,0.11l19.09-3.38l9.57-1.69l9.59-1.6l19.17-3.18c0.8-0.14,1.6-0.25,2.38-0.4
			c0.77-0.19,1.54-0.44,2.27-0.77c1.46-0.66,2.81-1.56,4.02-2.63c1.36-1.22,2.57-2.68,3.45-4.3c0.18-0.65,0.34-1.32,0.46-2.01
			c0.47-2.6,0.61-5.3,0.59-7.94c-0.29-33.14-0.58-66.27-0.98-99.4c-0.23-19.81-0.61-39.62-1.01-59.43
			C90.87,26.08,89.66,22.02,87.31,18.9z M28.29,39.94c0,3.16-2.64,5.27-5.9,4.71c-3.26-0.55-5.9-3.56-5.9-6.71V16.1
			c0-2.82,2.1-4.8,4.88-4.8c0.33,0,0.67,0.03,1.02,0.09c3.26,0.55,5.9,3.56,5.9,6.71V39.94z"/>
		<path class="st0" d="M88.59,204.28c-1.2,1.1-2.55,2.05-4.03,2.75c-0.74,0.35-1.51,0.63-2.31,0.84c-0.8,0.17-1.61,0.3-2.4,0.46
			l-19.1,3.58l-9.55,1.79l-9.57,1.69l-19.13,3.38l-0.05,0.01l-0.03,0l-2.3-0.12c-0.77-0.1-1.53-0.25-2.29-0.38
			c-1.48-0.46-3.01-0.99-4.21-2.07l-0.47-0.37c-0.15-0.13-0.27-0.3-0.4-0.44c-0.26-0.3-0.53-0.59-0.77-0.91
			c-0.4-0.68-0.86-1.34-1.11-2.08c-0.64-1.44-0.92-2.97-1.16-4.48c-0.4-3.04-0.38-6.07-0.37-9.07l0.02-9.01v-36.07V81.63V45.57
			V27.53v-9.02V14c-0.01-1.57,0.31-3.14,0.93-4.58c1.24-2.89,3.67-5.24,6.61-6.35c0.73-0.28,1.49-0.5,2.26-0.63
			c0.76-0.15,1.59-0.22,2.39-0.11c1.57,0.26,2.97,0.58,4.47,0.87l17.68,3.55c5.9,1.15,11.77,2.42,17.66,3.67l17.64,3.74l0.01,0
			l0.01,0c2.74,0.88,5.38,2.16,7.65,3.94c-2.42-2.79-5.86-4.73-10.4-5.77C57.91,8.14,39.52,4.2,21.08,0.51
			C10.63-1.58,2.46,4.73,1.68,15.35L1.62,47.72c-0.06,0.01-0.11,0.01-0.15,0.01C0.66,47.73,0,48.39,0,49.21v25.2
			c0,0.81,0.66,1.47,1.47,1.47h0.09L1.35,182.75c-0.05,7.8-0.56,15.57,0.17,23.38c1.03,10.97,8.85,18.29,18.91,16.59
			c19.36-3.26,38.66-6.92,57.96-10.54c7.09-1.33,11.53-5.49,13.41-11.97C90.96,201.73,89.85,203.1,88.59,204.28z"/>
	</g>
</g>
<g id="Left_Fill_copy" class="st1">
	<path class="st2" d="M89.09,61.23c1.05-0.26,0.83-1.2,0.83-2.33V46.74c0-0.66-0.27-1.26-0.71-1.7c-0.3-0.3-0.69-0.52-1.12-0.63
		v-16.5c0-3.33,0.02-6.66-0.06-9.99c-0.32-13.28-8.64-20.1-21.39-17.3C50.76,4.11,34.9,7.73,19.06,11.48
		C6.5,14.45,2.6,19.4,1.93,32.59c-0.1,1.99-0.07,4-0.06,6c0.01,2.9,0.01,5.8,0.01,8.7l0.26,21.46L2.4,89.74
		c0.09,7,0.08,14,0.12,20.99l0.17,36.8c0.11,6.18,0.11,12.36,0.09,18.55l0.13,26.43c0.1,1.55,0.27,2.97,0.52,4.29
		c0.23,0.66,0.52,1.3,0.86,1.91c0.71,1.27,1.61,2.43,2.64,3.47c2.06,2.04,4.69,3.65,7.54,4.01l0.03,0l0.02,0l52.85,11.58
		c2.86,0,5.86-0.52,7.99-2.34c1.07-0.9,1.85-2.11,2.39-3.42c0.52-1.33,0.85-2.75,1.04-4.19c0.38-2.9,0.37-5.86,0.36-8.82l-0.02-8.91
		v-35.64V83.17V47.53V29.71V20.8l0-4.45l0-2.23c0-0.37-0.03-0.71-0.04-1.07c-0.03-0.35-0.1-0.7-0.14-1.05
		c-0.5-2.8-2.2-5.33-4.53-6.94c-1.17-0.81-2.5-1.38-3.9-1.66c-0.71-0.14-1.39-0.24-2.08-0.16c-0.68,0.06-1.41,0.26-2.14,0.4
		L48.82,7.21L13.9,14.36l34.8-7.69l17.4-3.85c0.73-0.15,1.43-0.35,2.23-0.44c0.79-0.1,1.59,0,2.34,0.14
		c1.52,0.28,2.98,0.87,4.27,1.74c2.59,1.71,4.44,4.5,5,7.56c0.05,0.38,0.12,0.77,0.15,1.15c0.01,0.38,0.04,0.78,0.04,1.15l0,2.23
		l0,4.45v8.91v17.82v35.64v71.28v35.64l0.02,8.91c0.01,2.97,0.03,5.97-0.36,8.97c-0.2,1.5-0.54,3-1.11,4.43
		c-0.59,1.43-1.46,2.79-2.67,3.81c-1.19,1.04-2.67,1.68-4.15,2.08c-1.5,0.38-3.03,0.5-4.54,0.51l-0.05,0l-0.05-0.01l-52.91-11.59
		l0.05,0.01c-1.58-0.19-3.07-0.75-4.43-1.5c-1.36-0.75-2.6-1.71-3.7-2.8c-0.53-0.53-1.03-1.1-1.49-1.7
		c2.36,5.54,7.07,8.56,15.15,10.44c15.21,3.54,30.42,7.08,45.68,10.4c14.93,3.26,22.44-3,22.49-18.57
		c0.06-18.66,0.02-37.32,0.02-59.78l0.01-61.43c0.98-0.31,1.68-1.22,1.68-2.29V67.8c0-0.66-0.27-1.26-0.7-1.7L89.09,61.23z
		 M17.61,26.33v21.11c0,3.05-2.48,5.96-5.53,6.49c-3.06,0.54-5.53-1.5-5.53-4.55V28.27c0-3.05,2.47-5.95,5.53-6.49
		c0.33-0.06,0.65-0.08,0.96-0.08C15.63,21.7,17.61,23.61,17.61,26.33z M86.26,37.87c0,0.93-0.93,1.78-2.08,1.9
		c-0.05,0.01-0.09,0.01-0.14,0.01c-0.88,0.05-1.61-0.36-1.84-0.99c-0.03-0.06-0.05-0.11-0.06-0.17c-0.03-0.1-0.04-0.2-0.04-0.31
		v-9.77c0-0.06,0-0.11,0.01-0.17c0.02-0.11,0.04-0.21,0.08-0.32c0.02-0.05,0.04-0.11,0.08-0.16c0.29-0.65,1.04-1.16,1.91-1.25
		c0.09-0.01,0.18-0.01,0.27-0.01c0.02,0,0.04,0,0.06,0.01h0.03c0.98,0.03,1.72,0.63,1.72,1.46V37.87z"/>
</g>
</svg>
