<?xml version="1.0" encoding="iso-8859-1"?>
<!-- Generator: Adobe Illustrator 24.3.0, SVG Export Plug-In . SVG Version: 6.00 Build 0)  -->
<svg version="1.1" xmlns="http://www.w3.org/2000/svg" xmlns:xlink="http://www.w3.org/1999/xlink" x="0px" y="0px"
	 viewBox="0 0 164.958 164.958" style="enable-background:new 0 0 164.958 164.958;" xml:space="preserve">
<g id="ff">
	<g>
		<path d="M82.479,11c39.414,0,71.479,32.065,71.479,71.479s-32.065,71.479-71.479,71.479S11,121.893,11,82.479S43.065,11,82.479,11
			 M82.479,0C36.927,0,0,36.927,0,82.479s36.927,82.479,82.479,82.479s82.479-36.927,82.479-82.479S128.031,0,82.479,0L82.479,0z"/>
	</g>
	<g>
		<path d="M131.347,84.232l-44.58,25.74c-1.02,0.59-2.29-0.14-2.29-1.32v-17.97l-33.41,19.29c-1.02,0.59-2.29-0.14-2.29-1.32v-51.48
			c0-1.17,1.27-1.9,2.29-1.32l33.41,19.29v-17.97c0-1.17,1.27-1.9,2.29-1.32l44.58,25.74
			C132.367,82.182,132.367,83.652,131.347,84.232z"/>
	</g>
</g>
<g id="Layer_1">
</g>
</svg>
