<?xml version="1.0" encoding="iso-8859-1"?>
<!-- Generator: Adobe Illustrator 24.3.0, SVG Export Plug-In . SVG Version: 6.00 Build 0)  -->
<svg version="1.1" xmlns="http://www.w3.org/2000/svg" xmlns:xlink="http://www.w3.org/1999/xlink" x="0px" y="0px"
	 viewBox="0 0 164.958 164.958" style="enable-background:new 0 0 164.958 164.958;" xml:space="preserve">
<g id="ff_copy">
	<g>
		<path d="M82.479,11c39.414,0,71.479,32.065,71.479,71.479s-32.065,71.479-71.479,71.479S11,121.893,11,82.479S43.065,11,82.479,11
			 M82.479,0C36.927,0,0,36.927,0,82.479s36.927,82.479,82.479,82.479s82.479-36.927,82.479-82.479S128.031,0,82.479,0L82.479,0z"/>
	</g>
	<path d="M115.248,54.952v53.69c0,0.85-0.69,1.54-1.55,1.54h-18.23c-0.85,0-1.54-0.69-1.54-1.54v-19.36l-41.59,24.01
		c-1.14,0.66-2.57-0.16-2.57-1.48v-57.79c0-1.32,1.43-2.14,2.57-1.49l41.59,24.02v-21.6c0-0.86,0.69-1.55,1.54-1.55h18.23
		C114.558,53.402,115.248,54.092,115.248,54.952z"/>
</g>
</svg>
