<?xml version="1.0" encoding="iso-8859-1"?>
<!-- Generator: Adobe Illustrator 24.3.0, SVG Export Plug-In . SVG Version: 6.00 Build 0)  -->
<svg version="1.1" xmlns="http://www.w3.org/2000/svg" xmlns:xlink="http://www.w3.org/1999/xlink" x="0px" y="0px"
	 viewBox="0 0 164.958 164.958" style="enable-background:new 0 0 164.958 164.958;" xml:space="preserve">
<g id="ej">
	<g>
		<path d="M82.479,11c39.414,0,71.479,32.065,71.479,71.479s-32.065,71.479-71.479,71.479S11,121.893,11,82.479S43.065,11,82.479,11
			 M82.479,0C36.927,0,0,36.927,0,82.479s36.927,82.479,82.479,82.479s82.479-36.927,82.479-82.479S128.031,0,82.479,0L82.479,0z"/>
	</g>
	<path d="M116.397,113.647H48.102c-0.847,0-1.534-0.687-1.534-1.534v-9.988c0-0.847,0.687-1.534,1.534-1.534h68.295
		c0.847,0,1.534,0.687,1.534,1.534v9.988C117.931,112.961,117.244,113.647,116.397,113.647z"/>
	<g>
		<path d="M80.856,41.971L46.93,86.487c-0.879,1.153-0.056,2.814,1.393,2.814h67.852c1.45,0,2.272-1.661,1.393-2.814L83.643,41.971
			C82.942,41.051,81.557,41.051,80.856,41.971z"/>
	</g>
</g>
<g id="Layer_1">
</g>
</svg>
