<?xml version="1.0" encoding="utf-8"?>
<!-- Generator: Adobe Illustrator 24.3.0, SVG Export Plug-In . SVG Version: 6.00 Build 0)  -->
<svg version="1.1" id="Layer_3" xmlns="http://www.w3.org/2000/svg" xmlns:xlink="http://www.w3.org/1999/xlink" x="0px" y="0px"
	 viewBox="0 0 201.71 249.46" style="enable-background:new 0 0 201.71 249.46;" xml:space="preserve">
<style type="text/css">
	.st0{fill:#FFFFFF;}
</style>
<g>
	<path class="st0" d="M191.41,74.14c-6.76-12.66-16.2-22.19-27.31-27.56c-2.01-0.98-4.12-1.82-6.28-2.51
		c-2.15-4.8-4.3-8.27-4.75-8.98c-1.96-3.08-3.87-5.27-5.33-7.01c-11.4-13.61-25.38-21.94-43.64-23C87.86,4.13,71.65,2.39,55.51,0.32
		C42.7-1.32,32.79,3.31,25.03,12.83c-4.4,5.4-7.77,11.63-10.39,15.62c-2.55,6.82-4.71,11.38-5.98,16.17
		C-6.05,99.96-1.91,154.04,20.26,206.71c5.48,13.02,12.98,24.92,24.06,34.08c9.26,7.66,19.43,10.78,31.57,7.15
		c17.14-5.11,34.48-9.57,51.79-14.12c10.68-2.8,20.03-8.08,26.26-17.01c6.42-9.2,11.83-19.21,16.63-29.37l2.01-5.23
		c4.11-3.04,7.94-6.73,11.37-11.01c11.45-14.28,17.76-33.53,17.76-54.21C201.71,101.56,198.15,86.74,191.41,74.14z M100.45,194.47
		c-2.73,7.03-5.38,13.87-8.3,21.38C43.52,180.11,35.6,69.55,76.65,29.4c3.79,6.3,7.48,12.45,11.72,19.51c0,0,1.77,4.21,4.27,10.66
		c-0.88,0.92-1.72,1.88-2.55,2.86C77.7,77.17,71.05,96.75,71.35,117.56c0.38,25.5,11.41,49.1,29.51,63.13c0.89,0.69,1.8,1.36,2.71,2
		C101.87,190.18,100.45,194.47,100.45,194.47z M178.49,166.82c-7.88,9.82-18.09,16.37-29.4,17.96c-0.13,0.02-0.27,0.04-0.4,0.06
		c-1.66,0.22-3.33,0.33-5.03,0.33c-28.19,0-51.05-30.52-51.05-68.18c0-37.65,22.86-68.17,51.05-68.17c3.44,0,6.8,0.46,10.05,1.33
		c0.12,0.03,0.23,0.06,0.35,0.1c2.4,0.66,4.73,1.53,6.99,2.63c19.63,9.5,33.66,34.62,33.66,64.11
		C194.71,136.67,188.47,154.38,178.49,166.82z"/>
</g>
</svg>
