<?xml version="1.0" encoding="utf-8"?>
<!-- Generator: Adobe Illustrator 24.3.0, SVG Export Plug-In . SVG Version: 6.00 Build 0)  -->
<svg version="1.1" id="Layer_1" xmlns="http://www.w3.org/2000/svg" xmlns:xlink="http://www.w3.org/1999/xlink" x="0px" y="0px"
	 viewBox="0 0 1920 413.6" style="enable-background:new 0 0 1920 413.6;" xml:space="preserve">
<style type="text/css">
	.st0{fill:#FF0018;}
	.st1{fill:#FFFFFF;}
	.st2{stroke:#000000;stroke-width:0.2287;}
	.st3{stroke:#003876;stroke-width:0.9124;}
	.st4{stroke:#000000;stroke-width:0.9124;}
</style>
<g>
	<path id="path9368_1_" class="st0" d="M1252.7,400c-51.1,0-93.6-43-93.3-94.6c0.3-51.6,40.5-96.8,91.7-96.8l362.3,0
		c51.2,0,93.8,45.2,93.6,96.8c-0.3,51.6-40.8,94.6-91.9,94.6L1252.7,400z"/>
	<path id="path9374_1_" class="st1" d="M1253.4,391.5c-46.5,0-84-38-83.7-84.9c0.2-46.9,36.7-88.4,83.2-88.4l359.2,0
		c46.5,0,85.4,41.5,85.2,88.5c-0.2,46.9-38.1,84.9-84.6,84.9L1253.4,391.5z"/>
	<path id="path9380_1_" class="st0" d="M1254.5,382.1c-42.3,0-76.4-34.6-76.1-77.2c0.2-42.6,33.2-77.2,75.5-77.2l357.3,0
		c42.3,0,77.8,34.6,77.6,77.2c-0.2,42.6-34.6,77.2-76.9,77.2L1254.5,382.1z"/>
	<path id="path9386_1_" class="st0" d="M1633.1,48.1c6.4,15.5,4.7,33.9-1.7,49l-46.7,122.4c-8,21.8-30.1,42.2-53.2,45.9
		c-32.6,7.5-63.4-6.9-81.3-34.7c-6.8-11.6-10.6-24.7-16.4-36.7c-10.2,27.7-25,63-58,70.5c-28.2,8.2-58.6,0.2-77.5-21.6
		c-11-11.8-15-26.3-21.2-40.2l-44.5-116.9c-4.3-21,1.6-41.6,17.7-55.5c14.2-12.8,35.9-16.3,54-10.2c32.9,11.4,34.9,47.9,48.6,73.4
		c9-30,25.6-66.9,60-74.9c27.3-7.3,57.6,0,75.7,22.4c12.1,16.3,17,35.7,25.4,53.5c13.5-25.9,13.9-63,46.5-75.5
		C1587.4,7.5,1620.7,20.1,1633.1,48.1"/>
	<path id="path9392_1_" class="st1" d="M1621.4,51.5c5.2,11,4.7,26.3,0.4,37.5L1574,213.9c-6.8,15.9-21,33.6-38.6,37.7
		c-22.5,7.6-48.5,2.7-64.8-14.7c-20.1-20.8-23-50.7-36.6-74.6c-18.1,31-20.4,81.9-64.6,91.3c-23.1,5.7-46.3-1.9-62-18.2l-9.6-14.3
		c-19-46.1-36.3-92.8-54.1-139.5c-3-14.9,2-30.6,12.8-41c11.6-11.4,30.2-14.9,45.3-8.8c20.2,7.8,24.9,30.6,32.7,47.9
		c6.2,15.7,12.4,31.2,18.6,46.9c16.9-35.3,20.7-92.4,71.5-98.3c23.3-2.6,44.4,5.7,58.1,24.9c12.6,24.1,21,49.6,31.6,74.4l29.1-77.9
		c7.2-12.8,20.1-22,34.5-22.8C1596.2,25.8,1613,34.6,1621.4,51.5"/>
	<path id="path9398_1_" class="st0" d="M1610.6,53c4.8,7.8,5.2,17.1,3.9,25.9l-51.3,135.6c-8.8,17.9-27.2,29.1-46.3,30.4
		c-19.8,0.6-39.3-9.8-48.3-27.9c-12.4-27.5-23.7-56.1-35.7-83.8l-33.9,85.2c-11,17.5-29.4,28.6-51,26.9c-16.4-2-31.5-10.8-40.7-25.9
		l-12.4-29.4l-41.7-109.1c-2.8-11.6,0.9-23.2,8.5-31.8c8.3-8,20.3-12.2,32.6-9c9.3,2.2,17.5,10.8,21.1,19.6l37.9,96.5l0.4,0.6
		l35.9-93.6c11-15.7,28.6-27.5,48.6-24.5c15.2,0.6,27.8,9.6,36.9,21.6c14.4,31.2,24.9,64,39.3,95.4c14.7-34.1,25.4-69.7,40.2-103.8
		c7.9-12.6,22.3-16.5,36.1-13.7C1598.6,40.5,1606,45.6,1610.6,53"/>
	<path id="path9404_1_" class="st0" d="M1687.7,381.8l0-3l2,0c1,0,2.1,0.2,2.1,1.4c0,1.5-1.1,1.6-2.4,1.6L1687.7,381.8z M1687.7,383
		l1.7,0l2.5,4.2l1.6,0l-2.7-4.3c1.4-0.2,2.5-0.9,2.5-2.7c0-1.9-1.1-2.8-3.4-2.8l-3.7,0l0,9.7l1.4,0L1687.7,383z M1689.4,390.8
		c4.5,0,8.5-3.6,8.5-8.4c0-4.9-3.9-8.4-8.4-8.4c-4.6,0-8.5,3.5-8.5,8.4C1681,387.2,1684.8,390.8,1689.4,390.8 M1682.7,382.4
		c0-4,3-7,6.8-7c3.7,0,6.8,3,6.7,7c0,4.1-3.1,7.1-6.8,7C1685.6,389.4,1682.6,386.4,1682.7,382.4"/>
	<path id="path9410_1_" class="st0" d="M1424.4,209.9l-12.1,27.5l49.9,0l-18.3-27.1L1424.4,209.9z"/>
	<path id="path9416_1_" class="st1" d="M1414,202.6l6-14.4l13.3-33.2l19.2,43.4"/>
	<path id="path9422_1_" class="st0" d="M1433,160.4l-23,58.8l47.5-1.1L1433,160.4z"/>
	<path id="path9428_1_" class="st1" d="M1195,280l11.6,0c6.5,28.7,7.1,32.3,8.1,38.3l0.1,0c1-5.5,1.8-10.8,7.4-38.3l11.5,0
		c5.9,28.7,6.4,31.5,7.5,38.3l0.1,0c0.9-5,1.8-9.5,8.6-38.3l11,0l-14.9,52.4l-10.4,0c-5.2-25.7-6.1-30.8-7.8-40.9l-0.1,0
		c-1.6,10.1-2.5,13.9-8.2,40.9l-10.1,0L1195,280z"/>
	<path id="path9434_1_" class="st1" d="M1261.3,295.3l9.2-0.9l-0.2,37.9l-9.2,0.6L1261.3,295.3z"/>
	<path id="path9440_1_" class="st1" d="M1298.8,304.3c-1.7-1.7-4-2.4-6.4-2.4c-5.8,0-10.4,4.7-11,10.4c0,0.8,0,1.6,0.1,2.5
		L1298.8,304.3z M1308.2,328.6c-4.5,3.2-10,4.9-15.4,4.9c-10.9,0-20.4-8.6-20.3-19.7c0.1-11.2,9.7-19.7,20.5-19.7
		c7.6,0,14.2,4.6,17.4,11.4l-25.2,15.8c0.7,1.5,2.7,3.7,7.1,3.7c4.7,0,8.2-1.8,12-4.4L1308.2,328.6z"/>
	<path id="path9446_1_" class="st1" d="M1312.6,295.3l8.7-0.9l0,5.1l0.1,0c3.1-4.2,6.2-5.4,11.3-5.4c7.6,0,12.6,4.9,12.6,12.8
		l-0.1,25.4l-9.2,0.6l0.1-23.6c0-3.9-1.8-7.2-5.9-7.2c-5.8,0-8.5,4.4-8.5,9.1l-0.1,21.1l-9.2,0.6L1312.6,295.3z"/>
	<path id="path9452_1_" class="st1" d="M1374,304.3c-1.7-1.7-4-2.4-6.4-2.4c-5.8,0-10.4,4.7-11,10.4c0,0.8,0,1.6,0.1,2.5L1374,304.3
		z M1383.4,328.6c-4.5,3.1-10,4.9-15.4,4.9c-10.8,0-20.3-8.6-20.3-19.7c0.1-11.2,9.6-19.7,20.5-19.7c7.6,0,14.2,4.6,17.5,11.5
		l-25.3,15.8c0.7,1.5,2.7,3.7,7.2,3.7c4.7,0,8.2-1.8,12-4.4L1383.4,328.6z"/>
	<path id="path9458_1_" class="st1" d="M1395.6,301.1l0.2,0c3.2-5.7,7.3-6.9,13.7-7l-3.2,9.8c-7,0-10.1,4.2-10.2,10.6l-0.1,17.8
		l-9.2,0.6l0.2-37.6l8.7-0.9L1395.6,301.1z"/>
	<path id="path9464_1_" class="st1" d="M1413.2,321.9c2.4,2.6,4.8,3.9,8.3,3.9c3,0,5.1-1.9,5.1-3.8c0-6.7-18.1-2.3-18.1-16.5
		c0-7.6,6.7-11.4,13.5-11.4c5.2,0,10.1,2.1,13.6,6.1l-6,5.4c-1.8-2-4.1-3.7-6.9-3.7c-2.7,0-4.4,1-4.4,3.9c0,6.1,18.2,1.9,18.1,15.5
		c0,8.5-7.7,12.3-15.1,12.3c-5.1,0-10.4-2-13.8-6L1413.2,321.9z"/>
	<path id="path9470_1_" class="st1" d="M1466.2,305.4c-2.4-1.5-5-2.8-7.8-2.8c-6.8,0-11.9,4.5-11.9,11.2c0,6.4,5.7,11.2,10.5,11.2
		c3.7,0,5.9-0.9,8.8-2.9l5,6.6c-3.6,3.6-9.1,4.7-13.8,4.7c-9.5,0-19.8-7.5-19.8-20c0.1-11.2,9.6-19.4,20.3-19.4
		c5.4,0,9.5,1.7,13.5,4.3L1466.2,305.4z"/>
	<path id="path9476_1_" class="st1" d="M1474,282.3l9.2-1.2l-0.1,17.7l0.1,0c2.6-3.5,5.7-4.7,10.8-4.7c7.6,0,12.6,4.9,12.6,12.8
		l-0.1,25.4l-9.2,0.6l0.1-23.6c0-3.9-1.8-7.2-5.9-7.2c-5.8,0-8.5,4.4-8.5,9.1l-0.1,21.1l-9.2,0.6L1474,282.3z"/>
	<path id="path9482_1_" class="st1" d="M1511.8,295.3l8.7-0.9l0,5.1l0.2,0c3.1-4.2,6.2-5.4,11.3-5.4c7.6,0,12.6,4.9,12.6,12.8
		l-0.1,25.5l-9.2,0.6l0.1-23.6c0-3.9-1.8-7.2-5.9-7.2c-5.8,0-8.5,4.4-8.5,9.1l-0.1,21.1l-9.2,0.6L1511.8,295.3z"/>
	<path id="path9488_1_" class="st1" d="M1550.6,295.3l9.2,2.3l-0.2,34.7l-9.2,0.6L1550.6,295.3z"/>
	<path id="path9494_1_" class="st1" d="M1568.7,332.6l0.1-29.3l-15.4,0l-2.8-8l18.2,0l0.1-10.5l9.2-0.1l-0.1,10.6l8.3,0l0,8l-8.3,0
		l-0.2,29.3L1568.7,332.6z"/>
	<path id="path9500_1_" class="st1" d="M1575.7,295.3l44.3,0l2.3,6.1l-23.4,22.6c0,0,20.1,1.4,28.9,9.6c5.6,5.1,25.5,2,25.5,2
		l-1.5,7.8c0,0-21,3.5-29-2.9c-13.1-10.4-37.3-8.1-37.3-8.1l0-7.5l21.9-21.5l-33.9,0L1575.7,295.3z"/>
	<path id="path9506_1_" class="st1" d="M1647.1,304.3c-1.7-1.7-4-2.4-6.4-2.4c-5.8,0-10.4,4.7-11,10.4c0,0.8,0,1.6,0.1,2.5
		L1647.1,304.3z M1656.5,328.7c-4.5,3.1-10,4.9-15.4,4.9c-10.9,0-20.4-8.6-20.3-19.7c0.1-11.2,9.6-19.7,20.5-19.7
		c7.6,0,14.2,4.6,17.4,11.4l-25.3,15.8c0.7,1.5,2.7,3.7,7.1,3.7c4.7,0,8.2-1.8,12.1-4.4L1656.5,328.7z"/>
	<path id="path9512_1_" class="st1" d="M1660.3,333l0.3-51.8l9.2,0l-0.2,51.8L1660.3,333z"/>
</g>
<g>
	<g>
		<path d="M748.6,248.1v145.7h41.4v9.8H629.1v-9.8h26.6V105.6h-26.6v-9.3h270.7V194h-17.4c-24.5-72.4-31.1-87.9-60.8-87.9h-73v132.3
			"/>
		<g>
			<path class="st2" d="M748.6,248.1v145.7h41.4v9.8H629.1v-9.8h26.6V105.6h-26.6v-9.3h270.7V194h-17.4
				c-24.5-72.4-31.1-87.9-60.8-87.9h-73v132.3"/>
		</g>
		<path d="M303.1,321.7v-9.6h26.3L454.6,14.8H514l115.7,297.3h22.6v9.6H489.3v-9.6H533l-40.5-111.4L444.6,71.4L344.1,312.1h45.2v9.6
			L303.1,321.7 M444.6,71.4h-1"/>
		<g>
			<line class="st3" x1="444.6" y1="71.4" x2="443.5" y2="71.4"/>
			<polygon class="st4" points="303.1,321.7 303.1,312.1 329.4,312.1 454.6,14.8 514,14.8 629.8,312.1 652.4,312.1 652.4,321.7 
				489.3,321.7 489.3,312.1 533,312.1 492.5,200.7 444.6,71.4 344.1,312.1 389.3,312.1 389.3,321.7 			"/>
		</g>
		<path d="M42.9,403.9v-9.6h26.3L194.4,96.9h59.4l115.8,297.3h22.6v9.6H229.1v-9.6h43.7l-40.5-111.4l-47.5-131.7L83.9,394.2h45.3
			v9.6H42.9 M184.4,153.5h-1"/>
		<g>
			<line class="st3" x1="184.4" y1="153.5" x2="183.4" y2="153.5"/>
			<polygon class="st4" points="42.9,403.9 42.9,394.2 69.2,394.2 194.4,96.9 253.8,96.9 369.6,394.2 392.2,394.2 392.2,403.9 
				229.1,403.9 229.1,394.2 272.8,394.2 232.3,282.8 184.8,151.1 83.9,394.2 129.2,394.2 129.2,403.9 			"/>
		</g>
		<path d="M41.1,282.5c90.5-23.8,454.6-105.3,769.5,8.3l81.9-12.2C430,130.2,97.9,254.3,41.1,280.3V282.5"/>
		<path class="st2" d="M41.1,282.5c90.5-23.8,454.6-105.3,769.5,8.3l81.9-12.2C430,130.2,97.9,254.3,41.1,280.3V282.5z"/>
	</g>
</g>
</svg>
